<svg xmlns="http://www.w3.org/2000/svg" width="53.687" height="25.417" viewBox="0 0 53.687 25.417">
  <g id="Layer_2" data-name="Layer 2" transform="translate(159.378 -141.376)">
    <g id="Layer_1" data-name="Layer 1" transform="translate(-159.378 141.376)">
      <path id="Path_30535" data-name="Path 30535" d="M0,194.347H2.011v.816a3.043,3.043,0,0,1,2.412-.918,2.662,2.662,0,0,1,2.208,1.115,8.084,8.084,0,0,1,.953-.7,3.469,3.469,0,0,1,3.01-.171,2.545,2.545,0,0,1,1.573,2.131,5.437,5.437,0,0,1,.065.867q0,1.943,0,3.887v.211H10.112v-.2c0-1.228.012-2.458-.007-3.687a2.757,2.757,0,0,0-.173-.892,1.075,1.075,0,0,0-.987-.714,1.532,1.532,0,0,0-1.768,1.663c-.024,1.2,0,2.4-.009,3.6v.229H5.056v-3.8a2.379,2.379,0,0,0-.2-1.041,1.1,1.1,0,0,0-.892-.644,1.5,1.5,0,0,0-1.808,1.411,5.477,5.477,0,0,0-.033.584q0,1.642,0,3.284v.189c-.022.015-.031.027-.04.027H0Z" transform="translate(23.701 -186.365)"/>
      <path id="Path_30537" data-name="Path 30537" d="M96.341,201.633h-2v-.773a.619.619,0,0,0-.074.049,2.726,2.726,0,0,1-1.915.831,3.6,3.6,0,0,1-2.8-.956,3.42,3.42,0,0,1-1.041-2.039,4.07,4.07,0,0,1,.471-2.782,3.349,3.349,0,0,1,2.588-1.645,3.209,3.209,0,0,1,1.97.3,7.458,7.458,0,0,1,.687.465v-.568c0-.079.018-.125.11-.125h1.993Zm-2.057-3.694a3.594,3.594,0,0,0-.052-.425,1.687,1.687,0,0,0-1.315-1.428,1.733,1.733,0,0,0-1.874.586,2.143,2.143,0,0,0-.382,1.857,1.821,1.821,0,0,0,2.883,1.13A2.013,2.013,0,0,0,94.285,197.939Z" transform="translate(-51.599 -186.407)"/>
      <path id="Path_30539" data-name="Path 30539" d="M148.4,202.273l2.766-3.626-2.677-3.587c.077,0,.123-.015.171-.015H150.7a.269.269,0,0,1,.248.126c.468.653.943,1.3,1.428,1.969.037-.043.07-.077.1-.115.461-.617.922-1.233,1.38-1.853a.272.272,0,0,1,.248-.128h2.107l-2.69,3.541c.928,1.225,1.851,2.448,2.794,3.7-.089,0-.149.009-.2.009h-2.043a.28.28,0,0,1-.26-.137c-.446-.642-.913-1.282-1.371-1.921-.031-.045-.065-.088-.11-.149-.3.4-.586.79-.873,1.179-.226.3-.446.613-.68.915a.274.274,0,0,1-.17.1H148.47A.262.262,0,0,1,148.4,202.273Z" transform="translate(-102.63 -187.064)"/>
      <path id="Path_30541" data-name="Path 30541" d="M123.666,10.015A9.964,9.964,0,0,0,114.039.06h-.4a9.91,9.91,0,0,0-8.5,4.818,9.815,9.815,0,0,0-.98,8.435A19.58,19.58,0,0,0,106.9,18.4a36.721,36.721,0,0,0,4.732,5.288c.645.6,1.313,1.179,1.982,1.785.1-.073.156-.116.211-.162a39.778,39.778,0,0,0,6.271-6.528,20.184,20.184,0,0,0,2.924-5.191q.091-.253.17-.5a9.924,9.924,0,0,0,.479-3.077Z" transform="translate(-103.622 -0.06)" fill="#fddb00"/>
      <path id="Path_30542" data-name="Path 30542" d="M150.025,39.63a.431.431,0,0,1,.17.034.419.419,0,0,1,.137.1.446.446,0,0,1,.128.315v7.413a.275.275,0,0,1-.022.11.28.28,0,0,1-.058.089.253.253,0,0,1-.088.061.268.268,0,0,1-.109.022h-1.19a.288.288,0,0,1-.109-.022.28.28,0,0,1-.168-.26V42.432a.1.1,0,0,0,0-.037.089.089,0,0,0-.021-.03.094.094,0,0,0-.03-.019.088.088,0,0,0-.034,0H148.6l-.016.009-.015.013-1.521,1.569a.556.556,0,0,0-.068.088.511.511,0,0,0-.051.1.637.637,0,0,0-.031.107.557.557,0,0,0-.01.112v3.142a.3.3,0,0,1-.022.11.276.276,0,0,1-.059.089.3.3,0,0,1-.088.061.281.281,0,0,1-.107.021h-1.19a.26.26,0,0,1-.107-.022.269.269,0,0,1-.088-.059.3.3,0,0,1-.058-.091.265.265,0,0,1-.022-.11V44.34a.566.566,0,0,0-.01-.112.728.728,0,0,0-.031-.107.611.611,0,0,0-.051-.1.545.545,0,0,0-.068-.086l-1.509-1.575-.015-.013h-.049a.1.1,0,0,0-.034.007.092.092,0,0,0-.028.018.083.083,0,0,0-.021.03.106.106,0,0,0-.007.039v5.037a.263.263,0,0,1-.022.109.287.287,0,0,1-.058.091.269.269,0,0,1-.088.059.256.256,0,0,1-.107.022h-1.181a.271.271,0,0,1-.193-.083.284.284,0,0,1-.059-.089.3.3,0,0,1-.021-.11V40.085a.446.446,0,0,1,.263-.409.424.424,0,0,1,.168-.034h1.106a.469.469,0,0,1,.091.009.446.446,0,0,1,.086.027.425.425,0,0,1,.08.045.528.528,0,0,1,.07.059l2.458,2.549.022.019.028.012.027.009h.057l.028-.009.025-.013a.16.16,0,0,0,.024-.021l2.463-2.555a.446.446,0,0,1,.07-.059.426.426,0,0,1,.08-.045.446.446,0,0,1,.086-.027.39.39,0,0,1,.092-.01Z" transform="translate(-135.944 -33.746)"/>
    </g>
  </g>
</svg>
